<?xml version="1.0" encoding="utf-8"?>
<!-- Generator: Adobe Illustrator 28.3.0, SVG Export Plug-In . SVG Version: 6.00 Build 0)  -->
<svg version="1.1" id="レイヤー_1" xmlns="http://www.w3.org/2000/svg" xmlns:xlink="http://www.w3.org/1999/xlink" x="0px"
	 y="0px" viewBox="0 0 136 118" style="enable-background:new 0 0 136 118;" xml:space="preserve">
<style type="text/css">
	.st0{fill:#FFFFFF;}
</style>
<g>
	<path class="st0" d="M86.3,4.1c9,0.3,17.3,2.4,23.6,5.8c6.3,3.5,9.7,7.9,9.5,12.6c-0.3,7.6-10,13.9-24.3,15.6l0,0h-0.4
		c-3.1,0.4-6.4,0.5-9.7,0.4c-1.2,0-2.4-0.1-3.5-0.2h-0.4l0,0c-17-1.6-29.5-9.4-29.2-18.1c0-0.6,0.1-1.1,0.2-1.7
		c-1-0.1-2.1-0.2-3.1-0.2c-0.8,0-1.6,0-2.4,0c-0.3,0-0.5,0-0.8,0c-0.5,0-1,0-1.5,0c-0.3,0-0.6,0-0.9,0.1c-0.5,0-0.9,0-1.4,0.1
		c-0.3,0-0.7,0.1-1,0.1c-0.4,0-0.8,0.1-1.2,0.1c-1.8,3-2.7,6.1-2.7,9.2c0,9.3,7.9,17.9,21.1,23.1c7.8,3.1,16.9,4.7,26.3,4.7
		c1.2,0,2.4,0,3.6-0.1c24.5-1.1,43.7-13.3,43.7-27.8C132,12.5,110.7,0,84.6,0c-16.4,0-31.2,4.8-40,12.9c0.4,0,0.8,0,1.2,0
		s0.7,0,1.1,0c0.6,0,1.2,0,1.9,0c0.3,0,0.6,0,0.9,0c0.8,0,1.5,0.1,2.3,0.1c0.2,0,0.3,0,0.5,0c0.9,0.1,1.8,0.1,2.7,0.2
		C60.7,7.2,72.9,3.6,86.3,4.1z"/>
	<path class="st0" d="M47.9,52.1c-18.6-0.6-33.4-8.9-33.1-18.4C15.1,26,25,19.7,39.5,18l0,0h0.2c2.3-0.3,4.7-0.4,7.1-0.4
		c0.8,0,1.6,0,2.4,0c1.2,0,2.4,0.1,3.5,0.2h0.4l0,0c17,1.6,29.5,9.4,29.2,18.1c0,0.6-0.1,1.1-0.2,1.7c1,0.1,2.1,0.2,3.1,0.2
		c0.8,0,1.6,0,2.4,0c0.3,0,0.5,0,0.8,0c0.5,0,1,0,1.6,0c0.3,0,0.6,0,0.9-0.1c0.5,0,0.9,0,1.4-0.1c0.3,0,0.7-0.1,1-0.1
		c0.4,0,0.8-0.1,1.1-0.1c-2.8-12-18.8-21.7-39.1-23.6c-1.1-0.1-2.3-0.2-3.5-0.3c-0.4,0-0.7,0-1.1,0c-0.9,0-1.8-0.1-2.6-0.1
		c-0.3,0-0.7,0-1,0c-1.1,0-2.2,0-3.3,0.1C19.2,14.7,0,26.9,0,41.4c0,15.4,21.3,27.8,47.4,27.8c16.4,0,31.2-4.8,40-12.9
		c-0.4,0-0.8,0-1.2,0c-0.5,0-1,0-1.6,0c-0.2,0-0.4,0-0.6,0c-0.5,0-1,0-1.5,0c-0.7,0-1.5,0-2.2-0.1c-0.5,0-1-0.1-1.5-0.1
		C78,56,77.3,56,76.6,55.9c-0.5,0-0.9-0.1-1.4-0.2c-0.8-0.1-1.5-0.2-2.3-0.3c-0.4-0.1-0.9-0.1-1.3-0.2c-0.8-0.1-1.5-0.3-2.3-0.4
		c-0.4-0.1-0.8-0.2-1.2-0.3c-0.8-0.2-1.5-0.3-2.3-0.5c-0.4-0.1-0.8-0.2-1.2-0.3c-0.8-0.2-1.5-0.4-2.3-0.7c-0.4-0.1-0.7-0.2-1.1-0.3
		c-0.9-0.3-1.8-0.6-2.6-0.9c-0.2-0.1-0.3-0.1-0.5-0.2C54.8,52,51.4,52.2,47.9,52.1z"/>
	<path class="st0" d="M50.7,13.6c0.4,0,0.7,0,1.1,0C51.4,13.6,51,13.6,50.7,13.6z"/>
	<path class="st0" d="M85.1,37.9c-1,0-2.1-0.1-3.1-0.2l0,0C83,37.8,84.1,37.8,85.1,37.9z"/>
	<path class="st0" d="M47.4,13.5c-0.1,0-0.2,0-0.3,0c0.3,0,0.7,0,1,0C47.8,13.5,47.6,13.5,47.4,13.5z"/>
	<path class="st0" d="M80.2,56.2c0.7,0,1.5,0.1,2.2,0.1C81.7,56.3,81,56.2,80.2,56.2z"/>
	<path class="st0" d="M39.5,18L39.5,18c0.1,0,0.1,0,0.2,0H39.5z"/>
	<path class="st0" d="M46.7,17.6c0.8,0,1.6,0,2.4,0C48.3,17.6,47.5,17.6,46.7,17.6z"/>
	<path class="st0" d="M90.8,37.8c0.5,0,0.9,0,1.4-0.1C91.7,37.8,91.3,37.8,90.8,37.8z"/>
	<path class="st0" d="M88.3,37.9c0.5,0,1,0,1.6,0C89.3,37.9,88.8,37.9,88.3,37.9z"/>
	<path class="st0" d="M94.3,37.5c-0.4,0-0.7,0.1-1.1,0.1C93.6,37.6,93.9,37.6,94.3,37.5L94.3,37.5z"/>
	<path class="st0" d="M62.3,53.1c0.7,0.2,1.5,0.5,2.3,0.7C63.8,53.5,63,53.3,62.3,53.1z"/>
	<path class="st0" d="M87.5,37.9c-0.8,0-1.6,0-2.4,0C85.9,37.9,86.7,37.9,87.5,37.9z"/>
	<path class="st0" d="M65.7,54c0.7,0.2,1.5,0.4,2.3,0.5C67.2,54.4,66.5,54.2,65.7,54z"/>
	<path class="st0" d="M76.5,55.9c0.7,0.1,1.5,0.1,2.2,0.2C78,56.1,77.2,56,76.5,55.9z"/>
	<path class="st0" d="M86.1,56.3c-0.7,0-1.4,0-2.2,0c0.2,0,0.4,0,0.6,0C85.1,56.3,85.6,56.3,86.1,56.3z"/>
	<path class="st0" d="M58.6,51.8c0.9,0.3,1.7,0.6,2.6,0.9C60.3,52.5,59.5,52.1,58.6,51.8z"/>
	<path class="st0" d="M53,17.9h-0.4C52.8,17.8,52.9,17.9,53,17.9L53,17.9z"/>
	<path class="st0" d="M72.8,55.5c0.8,0.1,1.5,0.2,2.3,0.3C74.3,55.7,73.6,55.6,72.8,55.5z"/>
	<path class="st0" d="M69.2,54.8c0.8,0.2,1.5,0.3,2.3,0.4C70.8,55.1,70,55,69.2,54.8z"/>
	<g>
		<path class="st0" d="M11,97.8c-1,0.4-2,0.7-3.1,0.7c-1.8,0-3.1-0.6-4.1-1.7c-0.9-1.1-1.4-2.8-1.4-5.1c0-1.1,0.1-2.1,0.4-2.9
			c0.3-0.9,0.6-1.6,1.1-2.2s1.1-1.1,1.8-1.4s1.5-0.5,2.3-0.5c0.6,0,1.1,0.1,1.6,0.2s1,0.3,1.4,0.5v1.8c-0.5-0.3-0.9-0.5-1.4-0.6
			s-1-0.2-1.6-0.2s-1.1,0.1-1.6,0.4c-0.5,0.2-0.9,0.6-1.2,1c-0.3,0.5-0.6,1-0.8,1.7c-0.2,0.7-0.3,1.4-0.3,2.2c0,1.8,0.3,3.1,1,4
			S6.7,97,8,97c0.5,0,1-0.1,1.5-0.2s1-0.3,1.4-0.6v1.6H11z"/>
		<path class="st0" d="M22.3,87.9L19,97.2c-0.3,0.9-0.7,1.8-1,2.4c-0.4,0.7-0.8,1.2-1.2,1.7c-0.4,0.4-0.9,0.8-1.4,1
			s-1.1,0.3-1.7,0.3c-0.2,0-0.3,0-0.4,0c-0.1,0-0.3,0-0.4,0V101c0.1,0,0.3,0,0.5,0.1c0.2,0,0.3,0,0.5,0c0.3,0,0.6,0,0.9-0.1
			c0.3-0.1,0.5-0.3,0.7-0.5s0.5-0.5,0.7-0.8s0.4-0.8,0.6-1.3L13,88h1.9l2.4,6.9l0.5,1.6l0.6-1.7l2.2-6.8L22.3,87.9L22.3,87.9z"/>
		<path class="st0" d="M32.7,93c0,0.9-0.1,1.6-0.3,2.3c-0.2,0.7-0.5,1.3-0.9,1.7c-0.4,0.5-0.9,0.8-1.5,1.1c-0.6,0.3-1.2,0.4-2,0.4
			c-0.6,0-1.1-0.1-1.7-0.2s-1.2-0.3-1.8-0.6v-14h1.7v4l-0.1,1.9c0.5-0.7,1-1.2,1.5-1.5s1.1-0.4,1.7-0.4c0.5,0,1,0.1,1.4,0.4
			c0.4,0.2,0.8,0.6,1,1.1c0.3,0.5,0.5,1,0.6,1.6C32.6,91.5,32.7,92.2,32.7,93z M31,93c0-0.5,0-1-0.1-1.5s-0.2-0.8-0.3-1.2
			c-0.2-0.3-0.4-0.6-0.6-0.8c-0.2-0.2-0.5-0.3-0.9-0.3c-0.2,0-0.4,0-0.6,0.1s-0.4,0.2-0.7,0.4c-0.2,0.2-0.5,0.4-0.7,0.7
			c-0.3,0.3-0.5,0.6-0.8,1v5c0.3,0.1,0.7,0.2,1,0.3c0.3,0.1,0.7,0.1,1,0.1c0.4,0,0.7-0.1,1.1-0.2c0.3-0.1,0.7-0.4,0.9-0.7
			c0.3-0.3,0.5-0.7,0.6-1.2C30.9,94.4,31,93.8,31,93z"/>
		<path class="st0" d="M43.3,92.6c0,0.3,0,0.5,0,0.6c0,0.2,0,0.3,0,0.5h-6.7c0,1.1,0.3,1.9,0.8,2.4c0.5,0.6,1.3,0.9,2.4,0.9
			c0.3,0,0.6,0,0.8,0c0.3,0,0.5-0.1,0.8-0.1s0.5-0.1,0.7-0.1c0.2-0.1,0.5-0.1,0.7-0.2v1.5c-0.5,0.1-1,0.3-1.5,0.3
			c-0.6,0.1-1.2,0.1-1.8,0.1c-0.8,0-1.5-0.1-2.1-0.4c-0.6-0.2-1.1-0.6-1.5-1.1s-0.7-1-0.8-1.7c-0.2-0.7-0.3-1.4-0.3-2.3
			c0-0.7,0.1-1.4,0.3-2.1s0.5-1.2,0.8-1.7c0.4-0.5,0.8-0.9,1.4-1.2c0.5-0.3,1.2-0.4,1.8-0.4c0.7,0,1.3,0.1,1.8,0.3
			c0.5,0.2,0.9,0.6,1.3,1c0.4,0.4,0.6,0.9,0.8,1.5C43.3,91.2,43.3,91.9,43.3,92.6z M41.6,92.3c0-0.5,0-0.9-0.1-1.3s-0.3-0.7-0.5-1
			s-0.5-0.5-0.8-0.6c-0.3-0.2-0.7-0.2-1.1-0.2c-0.4,0-0.7,0.1-1,0.2c-0.3,0.2-0.6,0.4-0.8,0.6c-0.2,0.3-0.4,0.6-0.5,1
			s-0.2,0.8-0.2,1.3H41.6z"/>
		<path class="st0" d="M46.4,87.9h1.5v1.9c0.6-0.7,1.1-1.3,1.7-1.6c0.5-0.3,1.1-0.5,1.7-0.5c1,0,1.7,0.3,2.3,1
			c0.5,0.7,0.7,1.7,0.7,3.1h-1.7c0-0.9-0.1-1.6-0.4-2c-0.3-0.4-0.6-0.6-1.2-0.6c-0.2,0-0.4,0-0.7,0.1c-0.2,0.1-0.5,0.2-0.7,0.4
			c-0.2,0.2-0.5,0.4-0.8,0.7c-0.3,0.3-0.6,0.7-0.9,1.1v6.7h-1.7V87.9H46.4z"/>
		<path class="st0" d="M64.3,95.5c0,0.4-0.1,0.7-0.2,1s-0.3,0.5-0.5,0.8c-0.2,0.2-0.4,0.4-0.7,0.6s-0.5,0.3-0.8,0.4
			s-0.6,0.2-0.9,0.2c-0.3,0-0.6,0.1-0.9,0.1c-0.6,0-1.2,0-1.8-0.1s-1.1-0.2-1.6-0.3v-1.7c0.6,0.2,1.1,0.3,1.7,0.4
			c0.6,0.1,1.1,0.1,1.6,0.1c0.8,0,1.4-0.1,1.8-0.4c0.4-0.2,0.6-0.6,0.6-1c0-0.2,0-0.4-0.1-0.5s-0.2-0.3-0.3-0.4
			c-0.2-0.1-0.4-0.3-0.7-0.4s-0.8-0.3-1.4-0.5c-0.4-0.1-0.8-0.3-1.2-0.5s-0.7-0.4-0.9-0.6c-0.3-0.2-0.5-0.5-0.6-0.8
			c-0.2-0.3-0.2-0.7-0.2-1.1c0-0.3,0.1-0.6,0.2-1c0.1-0.3,0.3-0.7,0.6-1s0.7-0.5,1.2-0.7s1.1-0.3,1.9-0.3c0.4,0,0.8,0,1.2,0.1
			c0.5,0,0.9,0.1,1.4,0.2v1.6c-0.5-0.1-1-0.2-1.5-0.3c-0.5-0.1-0.9-0.1-1.2-0.1c-0.4,0-0.8,0-1,0.1c-0.3,0.1-0.5,0.2-0.7,0.3
			c-0.2,0.1-0.3,0.3-0.4,0.4c-0.1,0.2-0.1,0.3-0.1,0.5s0,0.4,0.1,0.5c0.1,0.2,0.2,0.3,0.4,0.4s0.4,0.3,0.8,0.4
			c0.3,0.1,0.7,0.3,1.3,0.5s1,0.4,1.4,0.6s0.7,0.4,0.9,0.7c0.2,0.2,0.4,0.5,0.5,0.8C64.2,94.8,64.3,95.1,64.3,95.5z"/>
		<path class="st0" d="M74.9,98c-0.4,0.2-0.9,0.3-1.3,0.4c-0.5,0.1-0.9,0.1-1.4,0.1c-1.5,0-2.7-0.4-3.5-1.3s-1.2-2.2-1.2-3.9
			c0-0.8,0.1-1.6,0.4-2.2c0.2-0.7,0.6-1.2,1-1.7s0.9-0.8,1.5-1.1c0.6-0.3,1.2-0.4,2-0.4c0.5,0,1,0,1.4,0.1s0.8,0.2,1.2,0.4V90
			c-0.4-0.2-0.8-0.4-1.3-0.5c-0.4-0.1-0.9-0.2-1.3-0.2s-0.8,0.1-1.2,0.3c-0.4,0.2-0.7,0.4-1,0.8c-0.3,0.3-0.5,0.7-0.7,1.2
			s-0.2,1-0.2,1.6c0,1.3,0.3,2.2,0.8,2.8c0.6,0.6,1.3,0.9,2.3,0.9c0.5,0,0.9-0.1,1.3-0.2s0.8-0.3,1.2-0.5C74.9,96.2,74.9,98,74.9,98
			z"/>
		<path class="st0" d="M81.4,89.4h-2.8v-1.5h4.5v8.9h2.8v1.5h-7.7v-1.5h3.1L81.4,89.4L81.4,89.4z M82,83.6c0.2,0,0.4,0,0.5,0.1
			c0.2,0.1,0.3,0.2,0.4,0.3c0.1,0.1,0.2,0.3,0.3,0.5c0.1,0.2,0.1,0.4,0.1,0.6s0,0.4-0.1,0.5c-0.1,0.2-0.2,0.3-0.3,0.5
			c-0.1,0.1-0.3,0.2-0.4,0.3c-0.2,0.1-0.3,0.1-0.5,0.1s-0.4,0-0.5-0.1c-0.2-0.1-0.3-0.2-0.4-0.3c-0.1-0.1-0.2-0.3-0.3-0.5
			c-0.1-0.2-0.1-0.4-0.1-0.5c0-0.2,0-0.4,0.1-0.6s0.2-0.3,0.3-0.5c0.1-0.1,0.3-0.2,0.4-0.3C81.6,83.6,81.8,83.6,82,83.6z"/>
		<path class="st0" d="M97,92.6c0,0.3,0,0.5,0,0.6c0,0.2,0,0.3,0,0.5h-6.7c0,1.1,0.3,1.9,0.8,2.4c0.5,0.6,1.3,0.9,2.4,0.9
			c0.3,0,0.6,0,0.8,0c0.3,0,0.5-0.1,0.8-0.1s0.5-0.1,0.7-0.1c0.2-0.1,0.5-0.1,0.7-0.2v1.5c-0.5,0.1-1,0.3-1.5,0.3
			c-0.6,0.1-1.2,0.1-1.8,0.1c-0.8,0-1.5-0.1-2.1-0.4c-0.6-0.2-1.1-0.6-1.5-1.1s-0.7-1-0.8-1.7c-0.2-0.7-0.3-1.4-0.3-2.3
			c0-0.7,0.1-1.4,0.3-2.1c0.2-0.7,0.5-1.2,0.8-1.7c0.4-0.5,0.8-0.9,1.4-1.2c0.5-0.3,1.2-0.4,1.8-0.4c0.7,0,1.3,0.1,1.8,0.3
			c0.5,0.2,0.9,0.6,1.3,1s0.6,0.9,0.8,1.5C96.9,91.2,97,91.9,97,92.6z M95.2,92.3c0-0.5,0-0.9-0.1-1.3s-0.3-0.7-0.5-1
			s-0.5-0.5-0.8-0.6c-0.3-0.2-0.7-0.2-1.1-0.2s-0.7,0.1-1,0.2c-0.3,0.2-0.6,0.4-0.8,0.6c-0.2,0.3-0.4,0.6-0.5,1s-0.2,0.8-0.2,1.3
			H95.2z"/>
		<path class="st0" d="M99.6,87.9h1.5l0.1,1.7c0.3-0.4,0.5-0.7,0.8-0.9c0.3-0.2,0.5-0.4,0.8-0.6c0.3-0.1,0.5-0.2,0.8-0.3
			c0.3-0.1,0.5-0.1,0.8-0.1c1,0,1.7,0.3,2.2,0.9s0.8,1.6,0.8,2.9v6.8h-1.7v-6.6c0-0.8-0.1-1.4-0.4-1.8s-0.7-0.6-1.2-0.6
			c-0.2,0-0.4,0-0.6,0.1s-0.4,0.2-0.6,0.3c-0.2,0.2-0.4,0.4-0.7,0.7c-0.2,0.3-0.5,0.6-0.8,1v6.9h-1.7V87.9H99.6z"/>
		<path class="st0" d="M117.8,98c-0.4,0.2-0.9,0.3-1.3,0.4c-0.5,0.1-0.9,0.1-1.4,0.1c-1.5,0-2.7-0.4-3.5-1.3s-1.2-2.2-1.2-3.9
			c0-0.8,0.1-1.6,0.4-2.2c0.2-0.7,0.6-1.2,1-1.7s0.9-0.8,1.5-1.1c0.6-0.3,1.2-0.4,2-0.4c0.5,0,1,0,1.4,0.1s0.8,0.2,1.2,0.4V90
			c-0.4-0.2-0.8-0.4-1.3-0.5c-0.4-0.1-0.9-0.2-1.3-0.2s-0.8,0.1-1.2,0.3c-0.4,0.2-0.7,0.4-1,0.8c-0.3,0.3-0.5,0.7-0.7,1.2
			s-0.2,1-0.2,1.6c0,1.3,0.3,2.2,0.8,2.8c0.6,0.6,1.3,0.9,2.3,0.9c0.5,0,0.9-0.1,1.3-0.2s0.8-0.3,1.2-0.5
			C117.8,96.2,117.8,98,117.8,98z"/>
		<path class="st0" d="M129.1,92.6c0,0.3,0,0.5,0,0.6c0,0.2,0,0.3,0,0.5h-6.7c0,1.1,0.3,1.9,0.8,2.4c0.5,0.6,1.3,0.9,2.4,0.9
			c0.3,0,0.6,0,0.8,0c0.3,0,0.5-0.1,0.8-0.1s0.5-0.1,0.7-0.1c0.2-0.1,0.5-0.1,0.7-0.2v1.5c-0.5,0.1-1,0.3-1.5,0.3
			c-0.6,0.1-1.2,0.1-1.8,0.1c-0.8,0-1.5-0.1-2.1-0.4c-0.6-0.2-1.1-0.6-1.5-1.1s-0.7-1-0.8-1.7c-0.2-0.7-0.3-1.4-0.3-2.3
			c0-0.7,0.1-1.4,0.3-2.1c0.2-0.7,0.5-1.2,0.8-1.7c0.4-0.5,0.8-0.9,1.4-1.2c0.5-0.3,1.2-0.4,1.8-0.4c0.7,0,1.3,0.1,1.8,0.3
			c0.5,0.2,0.9,0.6,1.3,1c0.4,0.4,0.6,0.9,0.8,1.5C129.1,91.2,129.1,91.9,129.1,92.6z M127.4,92.3c0-0.5,0-0.9-0.1-1.3
			s-0.3-0.7-0.5-1s-0.5-0.5-0.8-0.6c-0.3-0.2-0.7-0.2-1.1-0.2s-0.7,0.1-1,0.2c-0.3,0.2-0.6,0.4-0.8,0.6c-0.2,0.3-0.4,0.6-0.5,1
			s-0.2,0.8-0.2,1.3H127.4z"/>
		<path class="st0" d="M75.4,116.4c-1,0.4-2,0.7-3.1,0.7c-1.8,0-3.1-0.6-4.1-1.7c-0.9-1.1-1.4-2.8-1.4-5.1c0-1.1,0.1-2.1,0.4-2.9
			c0.3-0.9,0.6-1.6,1.1-2.2s1.1-1.1,1.8-1.4c0.7-0.3,1.5-0.5,2.3-0.5c0.6,0,1.1,0.1,1.6,0.2s1,0.3,1.4,0.5v1.8
			c-0.5-0.3-0.9-0.5-1.4-0.6s-1-0.2-1.6-0.2s-1.1,0.1-1.6,0.4c-0.5,0.2-0.9,0.6-1.2,1c-0.3,0.5-0.6,1-0.8,1.7
			c-0.2,0.7-0.3,1.4-0.3,2.2c0,1.8,0.3,3.1,1,4s1.6,1.3,2.9,1.3c0.5,0,1-0.1,1.5-0.2s1-0.3,1.4-0.6L75.4,116.4L75.4,116.4z"/>
		<path class="st0" d="M86.2,111.1c0,0.3,0,0.5,0,0.6c0,0.2,0,0.3,0,0.5h-6.7c0,1.1,0.3,1.9,0.8,2.4c0.5,0.6,1.3,0.9,2.4,0.9
			c0.3,0,0.6,0,0.8,0c0.3,0,0.5-0.1,0.8-0.1s0.5-0.1,0.7-0.1c0.2-0.1,0.5-0.1,0.7-0.2v1.5c-0.5,0.1-1,0.3-1.5,0.3
			c-0.6,0.1-1.2,0.1-1.8,0.1c-0.8,0-1.5-0.1-2.1-0.4c-0.6-0.2-1.1-0.6-1.5-1.1s-0.7-1-0.8-1.7c-0.2-0.7-0.3-1.4-0.3-2.3
			c0-0.7,0.1-1.4,0.3-2.1c0.2-0.7,0.5-1.2,0.8-1.7c0.4-0.5,0.8-0.9,1.4-1.2s1.2-0.4,1.8-0.4c0.7,0,1.3,0.1,1.8,0.3
			c0.5,0.2,0.9,0.6,1.3,1s0.6,0.9,0.8,1.5C86.2,109.7,86.2,110.4,86.2,111.1z M84.5,110.9c0-0.5,0-0.9-0.1-1.3s-0.3-0.7-0.5-1
			s-0.5-0.5-0.8-0.6c-0.3-0.2-0.7-0.2-1.1-0.2s-0.7,0.1-1,0.2c-0.3,0.2-0.6,0.4-0.8,0.6c-0.2,0.3-0.4,0.6-0.5,1s-0.2,0.8-0.2,1.3
			H84.5z"/>
		<path class="st0" d="M88.9,106.5h1.5l0.1,1.7c0.3-0.4,0.5-0.7,0.8-0.9c0.3-0.2,0.5-0.4,0.8-0.6c0.3-0.1,0.5-0.2,0.8-0.3
			c0.3-0.1,0.5-0.1,0.8-0.1c1,0,1.7,0.3,2.2,0.9s0.8,1.6,0.8,2.9v6.8H95v-6.6c0-0.8-0.1-1.4-0.4-1.8s-0.7-0.6-1.2-0.6
			c-0.2,0-0.4,0-0.6,0.1s-0.4,0.2-0.6,0.3c-0.2,0.2-0.4,0.4-0.7,0.7c-0.2,0.3-0.5,0.6-0.8,1v6.9H89L88.9,106.5L88.9,106.5z"/>
		<path class="st0" d="M107.3,116.7c-0.4,0.1-0.8,0.2-1.2,0.2c-0.4,0-0.8,0.1-1.2,0.1c-1.2,0-2.1-0.3-2.7-0.9s-0.9-1.5-0.9-2.7V108
			h-2.7v-1.5h2.7v-2.9l1.7-0.5v3.3h4.3v1.5H103v5.3c0,0.7,0.2,1.3,0.5,1.7c0.4,0.4,0.9,0.6,1.6,0.6c0.3,0,0.6,0,1-0.1
			s0.7-0.1,1.1-0.2v1.5C107.2,116.7,107.3,116.7,107.3,116.7z"/>
		<path class="st0" d="M118.4,111.1c0,0.3,0,0.5,0,0.6c0,0.2,0,0.3,0,0.5h-6.7c0,1.1,0.3,1.9,0.8,2.4c0.5,0.6,1.3,0.9,2.4,0.9
			c0.3,0,0.6,0,0.8,0c0.3,0,0.5-0.1,0.8-0.1s0.5-0.1,0.7-0.1c0.2-0.1,0.5-0.1,0.7-0.2v1.5c-0.5,0.1-1,0.3-1.5,0.3
			c-0.6,0.1-1.2,0.1-1.8,0.1c-0.8,0-1.5-0.1-2.1-0.4c-0.6-0.2-1.1-0.6-1.5-1.1s-0.7-1-0.8-1.7c-0.2-0.7-0.3-1.4-0.3-2.3
			c0-0.7,0.1-1.4,0.3-2.1c0.2-0.7,0.5-1.2,0.8-1.7c0.4-0.5,0.8-0.9,1.4-1.2c0.5-0.3,1.2-0.4,1.8-0.4c0.7,0,1.3,0.1,1.8,0.3
			c0.5,0.2,0.9,0.6,1.3,1s0.6,0.9,0.8,1.5C118.3,109.7,118.4,110.4,118.4,111.1z M116.7,110.9c0-0.5,0-0.9-0.1-1.3s-0.3-0.7-0.5-1
			s-0.5-0.5-0.8-0.6c-0.3-0.2-0.7-0.2-1.1-0.2s-0.7,0.1-1,0.2c-0.3,0.2-0.6,0.4-0.8,0.6c-0.2,0.3-0.4,0.6-0.5,1s-0.2,0.8-0.2,1.3
			H116.7z"/>
		<path class="st0" d="M121.5,106.5h1.5v1.9c0.6-0.7,1.1-1.3,1.7-1.6c0.5-0.3,1.1-0.5,1.7-0.5c1,0,1.7,0.3,2.3,1
			c0.5,0.7,0.7,1.7,0.7,3.1h-1.7c0-0.9-0.1-1.6-0.4-2s-0.6-0.6-1.2-0.6c-0.2,0-0.4,0-0.7,0.1c-0.2,0.1-0.5,0.2-0.7,0.4
			c-0.2,0.2-0.5,0.4-0.8,0.7c-0.3,0.3-0.6,0.7-0.9,1.1v6.7h-1.7v-10.3C121.3,106.5,121.5,106.5,121.5,106.5z"/>
	</g>
</g>
<path class="st0" d="M194.9,12.1V44h-5.6V12.1h-12v-5H207v5.1L194.9,12.1L194.9,12.1z"/>
<path class="st0" d="M224.6,45.2c-7.1,0-12.1-5.5-12.1-14.5c0-8.9,5-14.5,12.1-14.5c7.2,0,12.1,5.7,12.1,14.5S231.9,45.2,224.6,45.2
	z M224.6,20.7c-5,0-6.9,4.9-6.9,10s1.9,10,6.9,10s6.9-4.9,6.9-10C231.5,25.8,229.7,20.7,224.6,20.7z"/>
<path class="st0" d="M261.3,44V26.3c0-2.7-1.6-5.4-5-5.4c-4.5,0-7.2,4.6-7.2,8.6V44H244V7.1h5.3v13.8c1.1-1.5,3.5-4.6,8.8-4.6
	c4.8,0,8.5,2.7,8.5,9V44H261.3z"/>
<path class="st0" d="M285.9,45.2c-7.1,0-12.1-5.5-12.1-14.5c0-8.9,5-14.5,12.1-14.5c7.2,0,12.1,5.7,12.1,14.5S293.2,45.2,285.9,45.2
	z M285.9,20.7c-5,0-6.9,4.9-6.9,10s1.9,10,6.9,10s6.9-4.9,6.9-10C292.8,25.8,291,20.7,285.9,20.7z"/>
<path class="st0" d="M321.3,44L314,30.8l-3.2,3.2v10h-5.2V7.1h5.2v20.7l9.7-10.3h6.4l-9.4,9.7L327,44H321.3z"/>
<path class="st0" d="M350.7,44l-0.3-3.4c-1,1.3-3.5,4.7-8.9,4.7c-4.7,0-8.5-2.7-8.5-9.1V17.5h5.3v17.7c0,2.7,1.6,5.4,4.9,5.4
	c4.5,0,7.2-4.7,7.2-8.6V17.5h5.2V44H350.7z"/>
<path class="st0" d="M399.4,45.2c-7.9,0-14.4-5.1-14.4-14.2V7.1h5.6v24.2c0,4.2,3.7,9,8.9,9c4.6,0,8.8-4.1,8.8-9V7.1h5.6V31
	C414,39,408.8,45.2,399.4,45.2z"/>
<path class="st0" d="M441.4,44V26.3c0-2.7-1.6-5.4-5-5.4c-4.5,0-7.2,4.6-7.2,8.6V44H424V17.5h5l0.3,3.4c1.1-1.5,3.5-4.6,8.8-4.6
	c4.8,0,8.5,2.7,8.5,9V44H441.4z"/>
<path class="st0" d="M455.8,12.3V7.1h5.2v5.2C461,12.3,455.8,12.3,455.8,12.3z M455.8,44V17.5h5.2V44H455.8z"/>
<path class="st0" d="M482.6,44h-4.9l-9.6-26.5h5.5l6.5,19.2l6.5-19.2h5.5L482.6,44z"/>
<path class="st0" d="M502.7,32c0.2,2,0.9,8.6,6.8,8.6c0.7,0,4.9,0,6.5-5.1h5.1c-1.3,6.1-5.6,9.7-11.4,9.7c-7.2,0-12.4-6.2-12.4-14.6
	c0-8.3,5.2-14.3,12.7-14.3c2.4,0,7.7,0.6,10.4,7.1c1.3,3.2,1.3,6.7,1.3,8.6H502.7z M509.7,20.7c-5.4,0-6.5,5.3-6.9,6.9h13.4
	C516.1,26,515.4,20.7,509.7,20.7z"/>
<path class="st0" d="M536.7,23.1c-2.4,2.2-2.9,6.3-2.9,6.7V44h-5.2V17.5h5l0.3,3.1c1.1-1.4,3.3-4.3,6.9-4.3c0.5,0,0.7,0.1,0.8,0.2v5
	C540.2,21.5,538.5,21.6,536.7,23.1z"/>
<path class="st0" d="M557,45.2c-1.8,0-5-0.4-7.3-2.1c-3.2-2.4-3.3-5.9-3.4-7.2h5.1c0.2,4,2.9,4.9,5.8,4.9c2.6,0,5.5-1.2,5.5-3.9
	c0-2.1-1.7-3.2-7.1-4.7c-4.9-1.4-8.2-3.1-8.2-7.6c0-5,4.1-8.3,9.8-8.3c1.8,0,6.1,0.4,8.5,3.8c1.2,1.6,1.4,3.2,1.6,4.6H562
	c-0.5-4-4.2-4-5-4c-2.8,0-4.9,1.5-4.9,3.4c0,2,1.7,2.9,6.1,4c6.6,1.7,9.4,3.6,9.4,8C567.7,41,564.1,45.2,557,45.2z"/>
<path class="st0" d="M576.2,12.3V7.1h5.2v5.2C581.4,12.3,576.2,12.3,576.2,12.3z M576.2,44V17.5h5.2V44H576.2z"/>
<path class="st0" d="M599.1,45.2c-4.5,0-6-3-6-6.5V22.1h-4.3v-4.6h4.3V10h5.2v7.5h4.5v4.6h-4.5v16c0,2,1.3,2.6,3,2.6
	c0.3,0,0.8,0,1.6-0.1v4.1C602.1,45,600.3,45.2,599.1,45.2z"/>
<path class="st0" d="M620.1,46.4c-2.2,5.8-5.4,5.9-6.9,5.9c-2.4,0-3.5-0.7-4.3-1.3v-4.3c0.7,0.5,1.5,1.1,3.2,1.1c1.6,0,3-0.6,4-3.7
	L607,17.5h5.4l6.4,18.7l6.5-18.7h5.6L620.1,46.4z"/>
<g>
	<path class="st0" d="M196.1,110.1c-11.1,0-17.7-8.7-17.7-19.9c0-12.5,8.2-19.4,17.9-19.4c8.2,0,14.9,4.5,15.4,12.1h-5.5
		c-0.9-5-6.2-6.9-10-6.9c-2.5,0-5.3,0.8-7.5,2.6c-3.8,3-4.6,8.2-4.6,12c0,10.5,6.7,14.4,11.8,14.4c3.3,0,9.8-1.9,10.5-9.5h5.5
		C211.7,98.6,210.6,110.1,196.1,110.1z"/>
	<path class="st0" d="M230.9,111.2c-2.2,5.8-5.4,5.9-6.9,5.9c-2.4,0-3.5-0.7-4.3-1.3v-4.3c0.7,0.5,1.5,1.1,3.2,1.1
		c1.6,0,3-0.6,4-3.7l-9.1-26.5h5.4l6.4,18.7l6.5-18.7h5.6L230.9,111.2z"/>
	<path class="st0" d="M252.9,72v12.9c1.5-1.8,3.7-3.7,7.9-3.7c9,0,12.1,8,12.1,14.5c0,6.6-3.3,14.5-12.1,14.5
		c-2.7,0-5.6-0.8-8.1-4.1l-0.3,2.9h-4.9V72H252.9z M260.3,85.7c-5.1,0-7.4,4.6-7.4,10c0,5.3,2.4,9.9,7.4,9.9c4.9,0,7.4-4.2,7.4-10
		C267.7,89.9,265.1,85.7,260.3,85.7z"/>
	<path class="st0" d="M284.8,96.9c0.2,2,0.9,8.6,6.8,8.6c0.7,0,4.9,0,6.5-5.1h5.1c-1.3,6.1-5.6,9.7-11.4,9.7
		c-7.2,0-12.4-6.2-12.4-14.6c0-8.3,5.2-14.3,12.7-14.3c2.4,0,7.7,0.6,10.4,7.1c1.3,3.2,1.3,6.7,1.3,8.6
		C303.8,96.9,284.8,96.9,284.8,96.9z M291.8,85.6c-5.4,0-6.5,5.3-6.9,6.9h13.4C298.2,90.9,297.6,85.6,291.8,85.6z"/>
	<path class="st0" d="M318.8,88c-2.4,2.2-2.9,6.3-2.9,6.7v14.2h-5.2V82.4h5l0.3,3.1c1.1-1.4,3.3-4.3,6.9-4.3c0.5,0,0.7,0.1,0.8,0.2
		v5C322.3,86.4,320.6,86.4,318.8,88z"/>
	<path class="st0" d="M339.1,110.1c-1.8,0-5-0.4-7.3-2.1c-3.2-2.4-3.3-5.9-3.4-7.2h5.1c0.2,4,2.9,4.9,5.8,4.9c2.6,0,5.5-1.2,5.5-3.9
		c0-2.1-1.7-3.2-7.1-4.7c-4.9-1.4-8.2-3.1-8.2-7.6c0-5,4.1-8.3,9.8-8.3c1.8,0,6.1,0.4,8.5,3.8c1.2,1.6,1.4,3.2,1.6,4.6h-5.2
		c-0.5-4-4.2-4-5-4c-2.8,0-4.9,1.5-4.9,3.4c0,2,1.7,2.9,6.1,4c6.6,1.7,9.4,3.6,9.4,8C349.8,105.9,346.3,110.1,339.1,110.1z"/>
	<path class="st0" d="M375.5,91.1c-0.4-2.9-2.4-5.5-6.2-5.5c-3.7,0-7.9,2.3-7.9,10.4c0,2.3,0.5,9.7,7.2,9.7c6,0,6.5-4.6,6.7-6.1h5.2
		c-0.3,8.5-7.9,10.4-12.1,10.4c-8.4,0-12.4-7-12.4-14.5c0-9,5.4-14.5,13.2-14.5c9.6,0,11.1,7.4,11.6,9.9h-5.3V91.1z"/>
	<path class="st0" d="M388.9,77.2V72h5.2v5.2H388.9z M388.9,108.9V82.4h5.2v26.5H388.9z"/>
	<path class="st0" d="M408,96.9c0.2,2,0.9,8.6,6.8,8.6c0.7,0,4.9,0,6.5-5.1h5.1c-1.3,6.1-5.6,9.7-11.4,9.7
		c-7.2,0-12.4-6.2-12.4-14.6c0-8.3,5.2-14.3,12.7-14.3c2.4,0,7.7,0.6,10.4,7.1c1.3,3.2,1.3,6.7,1.3,8.6C427,96.9,408,96.9,408,96.9z
		 M415,85.6c-5.4,0-6.5,5.3-6.9,6.9h13.4C421.3,90.9,420.7,85.6,415,85.6z"/>
	<path class="st0" d="M451.4,108.9V91.1c0-2.7-1.6-5.4-5-5.4c-4.5,0-7.2,4.6-7.2,8.6v14.5H434V82.4h5l0.3,3.4
		c1.1-1.5,3.5-4.6,8.8-4.6c4.8,0,8.5,2.7,8.5,9v18.7C456.6,108.9,451.4,108.9,451.4,108.9z"/>
	<path class="st0" d="M483,91.1c-0.4-2.9-2.4-5.5-6.2-5.5c-3.7,0-7.9,2.3-7.9,10.4c0,2.3,0.5,9.7,7.2,9.7c6,0,6.5-4.6,6.7-6.1h5.2
		c-0.3,8.5-7.9,10.4-12.1,10.4c-8.4,0-12.4-7-12.4-14.5c0-9,5.4-14.5,13.2-14.5c9.6,0,11.1,7.4,11.6,9.9H483V91.1z"/>
	<path class="st0" d="M499.9,96.9c0.2,2,0.9,8.6,6.8,8.6c0.7,0,4.9,0,6.5-5.1h5.1c-1.3,6.1-5.6,9.7-11.4,9.7
		c-7.2,0-12.4-6.2-12.4-14.6c0-8.3,5.2-14.3,12.7-14.3c2.4,0,7.7,0.6,10.4,7.1c1.3,3.2,1.3,6.7,1.3,8.6
		C518.9,96.9,499.9,96.9,499.9,96.9z M507,85.6c-5.4,0-6.5,5.3-6.9,6.9h13.4C513.3,90.9,512.7,85.6,507,85.6z"/>
	<path class="st0" d="M562.5,110.1c-11.1,0-17.7-8.7-17.7-19.9c0-12.5,8.2-19.4,17.9-19.4c8.2,0,14.9,4.5,15.4,12.1h-5.5
		c-0.9-5-6.2-6.9-10-6.9c-2.5,0-5.3,0.8-7.5,2.6c-3.8,3-4.6,8.2-4.6,12c0,10.5,6.7,14.4,11.8,14.4c3.3,0,9.8-1.9,10.5-9.5h5.5
		C578.1,98.6,576.9,110.1,562.5,110.1z"/>
	<path class="st0" d="M590.9,96.9c0.2,2,0.9,8.6,6.8,8.6c0.7,0,4.9,0,6.5-5.1h5.1c-1.3,6.1-5.6,9.7-11.4,9.7
		c-7.2,0-12.4-6.2-12.4-14.6c0-8.3,5.2-14.3,12.7-14.3c2.4,0,7.7,0.6,10.4,7.1c1.3,3.2,1.3,6.7,1.3,8.6
		C609.9,96.9,590.9,96.9,590.9,96.9z M597.9,85.6c-5.4,0-6.5,5.3-6.9,6.9h13.4C604.2,90.9,603.6,85.6,597.9,85.6z"/>
	<path class="st0" d="M634.2,108.9V91.1c0-2.7-1.6-5.4-5-5.4c-4.5,0-7.2,4.6-7.2,8.6v14.5h-5.3V82.4h5l0.3,3.4
		c1.1-1.5,3.5-4.6,8.8-4.6c4.8,0,8.5,2.7,8.5,9v18.7C639.3,108.9,634.2,108.9,634.2,108.9z"/>
	<path class="st0" d="M656,110.1c-4.5,0-6-3-6-6.5V87h-4.3v-4.6h4.3v-7.5h5.2v7.5h4.5V87h-4.5v16c0,2,1.3,2.6,3,2.6
		c0.3,0,0.8,0,1.6-0.1v4.1C659,109.8,657.2,110.1,656,110.1z"/>
	<path class="st0" d="M670.6,96.9c0.2,2,0.9,8.6,6.8,8.6c0.7,0,4.9,0,6.5-5.1h5.1c-1.3,6.1-5.6,9.7-11.4,9.7
		c-7.2,0-12.4-6.2-12.4-14.6c0-8.3,5.2-14.3,12.7-14.3c2.4,0,7.7,0.6,10.4,7.1c1.3,3.2,1.3,6.7,1.3,8.6
		C689.6,96.9,670.6,96.9,670.6,96.9z M677.6,85.6c-5.4,0-6.5,5.3-6.9,6.9h13.4C683.9,90.9,683.3,85.6,677.6,85.6z"/>
	<path class="st0" d="M704.6,88c-2.4,2.2-2.9,6.3-2.9,6.7v14.2h-5.2V82.4h5l0.3,3.1c1.1-1.4,3.3-4.3,6.9-4.3c0.5,0,0.7,0.1,0.8,0.2
		v5C708.1,86.4,706.3,86.4,704.6,88z"/>
</g>
</svg>
