<svg xmlns="http://www.w3.org/2000/svg">
  <symbol id="icon-home" viewBox="0 0 24 24" fill="none" stroke="currentColor" stroke-width="1.85" stroke-linecap="round" stroke-linejoin="round">
    <path d="M3 10.5 12 3l9 7.5" />
    <path d="M5 9.5V21h14V9.5" />
    <path d="M9.5 21v-6.5h5V21" />
  </symbol>
  <symbol id="icon-research" viewBox="0 0 24 24" fill="none" stroke="currentColor" stroke-width="1.85" stroke-linecap="round" stroke-linejoin="round">
    <circle cx="12" cy="12" r="2.6" />
    <circle cx="12" cy="4.5" r="1.6" />
    <circle cx="5.5" cy="16.5" r="1.6" />
    <circle cx="18.5" cy="16.5" r="1.6" />
    <path d="M12 6.1v3.3M7 15.6l2.8-1.6M17 15.6 14.2 14" />
  </symbol>
  <symbol id="icon-profiles" viewBox="0 0 24 24" fill="none" stroke="currentColor" stroke-width="1.85" stroke-linecap="round" stroke-linejoin="round">
    <rect x="3.5" y="5" width="17" height="14" rx="3" />
    <circle cx="8.5" cy="11" r="2.4" />
    <path d="M5.8 16c.8-1.6 2.1-2.4 3.9-2.4s3.1.8 3.9 2.4" />
    <path d="M15 10h3.4M15 13.5h3.4" />
  </symbol>
  <symbol id="icon-archive" viewBox="0 0 24 24" fill="none" stroke="currentColor" stroke-width="1.85" stroke-linecap="round" stroke-linejoin="round">
    <path d="M3.5 8.5h7l2 2h8v7.8A2.7 2.7 0 0 1 17.8 21H6.2a2.7 2.7 0 0 1-2.7-2.7V8.5Z" />
    <path d="M3.5 8.5V6.8A2.8 2.8 0 0 1 6.3 4h3.9l1.8 2h3" />
  </symbol>
  <symbol id="icon-timeline" viewBox="0 0 24 24" fill="none" stroke="currentColor" stroke-width="1.85" stroke-linecap="round" stroke-linejoin="round">
    <path d="M12 4v16" />
    <circle cx="12" cy="6" r="2" />
    <circle cx="12" cy="12" r="2" />
    <circle cx="12" cy="18" r="2" />
    <path d="M16 6h4M4 12h4M16 18h4" />
  </symbol>
  <symbol id="icon-sources" viewBox="0 0 24 24" fill="none" stroke="currentColor" stroke-width="1.85" stroke-linecap="round" stroke-linejoin="round">
    <path d="M8 7.5h8" />
    <path d="M8 11.5h8" />
    <path d="M8 15.5h5" />
    <path d="M6.5 3.5h9l3 3v12A2.5 2.5 0 0 1 16 21H6.5A2.5 2.5 0 0 1 4 18.5V6A2.5 2.5 0 0 1 6.5 3.5Z" />
    <path d="M15.5 3.5V7h3" />
  </symbol>
  <symbol id="icon-publications" viewBox="0 0 24 24" fill="none" stroke="currentColor" stroke-width="1.85" stroke-linecap="round" stroke-linejoin="round">
    <path d="M4 5.5A2.5 2.5 0 0 1 6.5 3H20v17.5H6.5A2.5 2.5 0 0 0 4 23Z" />
    <path d="M6.5 3A2.5 2.5 0 0 0 4 5.5V21" />
    <path d="M8 7h8M8 11h8M8 15h5" />
  </symbol>
  <symbol id="icon-awards" viewBox="0 0 24 24" fill="none" stroke="currentColor" stroke-width="1.85" stroke-linecap="round" stroke-linejoin="round">
    <path d="M8 4h8v3.5A4 4 0 0 1 12 11.5 4 4 0 0 1 8 7.5Z" />
    <path d="M8 5.5H5.5A1.5 1.5 0 0 0 4 7v.2A3.8 3.8 0 0 0 7.8 11H8" />
    <path d="M16 5.5h2.5A1.5 1.5 0 0 1 20 7v.2a3.8 3.8 0 0 1-3.8 3.8H16" />
    <path d="M12 11.5V16" />
    <path d="M9 21h6" />
    <path d="M8.5 16h7" />
  </symbol>
  <symbol id="icon-service" viewBox="0 0 24 24" fill="none" stroke="currentColor" stroke-width="1.85" stroke-linecap="round" stroke-linejoin="round">
    <path d="M12 3.5 19 6v5.3c0 4.1-2.7 7.8-7 9.2-4.3-1.4-7-5.1-7-9.2V6Z" />
    <path d="m9.2 11.8 1.9 1.9 3.8-4" />
  </symbol>
  <symbol id="icon-projects" viewBox="0 0 24 24" fill="none" stroke="currentColor" stroke-width="1.85" stroke-linecap="round" stroke-linejoin="round">
    <path d="m9 7-5 5 5 5" />
    <path d="m15 7 5 5-5 5" />
    <path d="m13.5 4.5-3 15" />
  </symbol>
  <symbol id="icon-contact" viewBox="0 0 24 24" fill="none" stroke="currentColor" stroke-width="1.85" stroke-linecap="round" stroke-linejoin="round">
    <rect x="3.5" y="5" width="17" height="14" rx="2.5" />
    <path d="m5 7 7 5 7-5" />
  </symbol>
  <symbol id="icon-identity" viewBox="0 0 24 24" fill="none" stroke="currentColor" stroke-width="1.85" stroke-linecap="round" stroke-linejoin="round">
    <circle cx="12" cy="8.5" r="3.2" />
    <path d="M5.5 18.5c1.5-3 3.7-4.5 6.5-4.5s5 1.5 6.5 4.5" />
  </symbol>
  <symbol id="icon-official" viewBox="0 0 24 24" fill="none" stroke="currentColor" stroke-width="1.85" stroke-linecap="round" stroke-linejoin="round">
    <path d="M4 20h16" />
    <path d="M6 20V9.5M10 20V9.5M14 20V9.5M18 20V9.5" />
    <path d="M3 9.5h18L12 4Z" />
  </symbol>
  <symbol id="icon-academic" viewBox="0 0 24 24" fill="none" stroke="currentColor" stroke-width="1.85" stroke-linecap="round" stroke-linejoin="round">
    <path d="m3 9 9-4 9 4-9 4Z" />
    <path d="M7 10.8V15c0 1.4 2.2 2.6 5 2.6s5-1.2 5-2.6v-4.2" />
    <path d="M21 10v5" />
  </symbol>
  <symbol id="icon-registry" viewBox="0 0 24 24" fill="none" stroke="currentColor" stroke-width="1.85" stroke-linecap="round" stroke-linejoin="round">
    <rect x="4" y="4" width="16" height="16" rx="3" />
    <path d="M8 9h8M8 13h8M8 17h5" />
  </symbol>
  <symbol id="icon-file" viewBox="0 0 24 24" fill="none" stroke="currentColor" stroke-width="1.85" stroke-linecap="round" stroke-linejoin="round">
    <path d="M6.5 3.5h8.8l3.2 3.2v11.8A2.5 2.5 0 0 1 16 21H6.5A2.5 2.5 0 0 1 4 18.5V6A2.5 2.5 0 0 1 6.5 3.5Z" />
    <path d="M15.3 3.5V7h3.2" />
  </symbol>
  <symbol id="icon-code" viewBox="0 0 24 24" fill="none" stroke="currentColor" stroke-width="1.85" stroke-linecap="round" stroke-linejoin="round">
    <path d="m8.5 8.5-4 3.5 4 3.5" />
    <path d="m15.5 8.5 4 3.5-4 3.5" />
    <path d="m13.5 6-3 12" />
  </symbol>
  <symbol id="icon-position" viewBox="0 0 24 24" fill="none" stroke="currentColor" stroke-width="1.85" stroke-linecap="round" stroke-linejoin="round">
    <rect x="4" y="7.5" width="16" height="11" rx="2.5" />
    <path d="M9 7.5V6a1.8 1.8 0 0 1 1.8-1.8h2.4A1.8 1.8 0 0 1 15 6v1.5" />
    <path d="M4 12h16" />
  </symbol>
  <symbol id="icon-education" viewBox="0 0 24 24" fill="none" stroke="currentColor" stroke-width="1.85" stroke-linecap="round" stroke-linejoin="round">
    <path d="m3 9 9-4 9 4-9 4Z" />
    <path d="M7 10.8V15c0 1.4 2.2 2.6 5 2.6s5-1.2 5-2.6v-4.2" />
    <path d="M21 10v5" />
  </symbol>
  <symbol id="icon-fellowship" viewBox="0 0 24 24" fill="none" stroke="currentColor" stroke-width="1.85" stroke-linecap="round" stroke-linejoin="round">
    <path d="m12 3 2.3 5 5.4.5-4 3.5 1.2 5.3-4.9-2.9-4.9 2.9 1.2-5.3-4-3.5L9.7 8Z" />
  </symbol>
  <symbol id="icon-editorial" viewBox="0 0 24 24" fill="none" stroke="currentColor" stroke-width="1.85" stroke-linecap="round" stroke-linejoin="round">
    <path d="M4 20h4.5l10-10a2.1 2.1 0 0 0-3-3L5.5 17Z" />
    <path d="m13.5 8.5 3 3" />
  </symbol>
  <symbol id="icon-teaching" viewBox="0 0 24 24" fill="none" stroke="currentColor" stroke-width="1.85" stroke-linecap="round" stroke-linejoin="round">
    <rect x="4" y="5" width="16" height="10" rx="2" />
    <path d="M12 15v5" />
    <path d="M8.5 20h7" />
    <path d="m8 9 2.5 2.5L16 8" />
  </symbol>
  <symbol id="icon-visit" viewBox="0 0 24 24" fill="none" stroke="currentColor" stroke-width="1.85" stroke-linecap="round" stroke-linejoin="round">
    <circle cx="12" cy="12" r="8" />
    <path d="M12 4a12.5 12.5 0 0 1 0 16" />
    <path d="M12 4a12.5 12.5 0 0 0 0 16" />
    <path d="M4 12h16" />
  </symbol>
  <symbol id="icon-up" viewBox="0 0 24 24" fill="none" stroke="currentColor" stroke-width="1.9" stroke-linecap="round" stroke-linejoin="round">
    <path d="M12 19V6" />
    <path d="m6.5 11.5 5.5-5.5 5.5 5.5" />
  </symbol>
  <symbol id="icon-filter" viewBox="0 0 24 24" fill="none" stroke="currentColor" stroke-width="1.85" stroke-linecap="round" stroke-linejoin="round">
    <path d="M4.5 6.5h15" />
    <path d="M7.5 12h9" />
    <path d="M10.5 17.5h3" />
  </symbol>
  <symbol id="icon-reset" viewBox="0 0 24 24" fill="none" stroke="currentColor" stroke-width="1.85" stroke-linecap="round" stroke-linejoin="round">
    <path d="M20 12a8 8 0 1 1-2.1-5.4" />
    <path d="M20 4.8v4.8h-4.8" />
  </symbol>
  <symbol id="icon-keyword" viewBox="0 0 24 24" fill="none" stroke="currentColor" stroke-width="1.85" stroke-linecap="round" stroke-linejoin="round">
    <path d="M11 4.5H6.5A2.5 2.5 0 0 0 4 7v4.5l7.2 7.2a2 2 0 0 0 2.8 0l4.8-4.8a2 2 0 0 0 0-2.8L11 4.5Z" />
    <circle cx="8.2" cy="8.2" r="1.2" />
  </symbol>
  <symbol id="icon-copy" viewBox="0 0 24 24" fill="none" stroke="currentColor" stroke-width="1.85" stroke-linecap="round" stroke-linejoin="round">
    <rect x="9" y="7" width="10" height="13" rx="2.2" />
    <path d="M6.5 16H6A2.5 2.5 0 0 1 3.5 13.5V6A2.5 2.5 0 0 1 6 3.5h7.5A2.5 2.5 0 0 1 16 6v.5" />
  </symbol>
  <symbol id="icon-menu" viewBox="0 0 24 24" fill="none" stroke="currentColor" stroke-width="1.9" stroke-linecap="round" stroke-linejoin="round">
    <path d="M4.5 7h15" />
    <path d="M4.5 12h15" />
    <path d="M4.5 17h15" />
  </symbol>
</svg>
